<mxfile host="65bd71144e">
    <diagram id="KIK9uLT2RlmOLuf5P_y0" name="Page-1">
        <mxGraphModel dx="841" dy="609" grid="1" gridSize="10" guides="1" tooltips="1" connect="1" arrows="1" fold="1" page="1" pageScale="1" pageWidth="850" pageHeight="1100" math="0" shadow="0">
            <root>
                <mxCell id="0"/>
                <mxCell id="1" parent="0"/>
                <UserObject label="Digital&amp;nbsp;Experiences" link="#digital-experiences" id="2">
                    <mxCell style="rounded=1;whiteSpace=wrap;html=1;fontSize=24;fillColor=#f5f5f5;strokeColor=#666666;fontColor=#333333;" parent="1" vertex="1">
                        <mxGeometry x="110" y="160" width="470" height="60" as="geometry"/>
                    </mxCell>
                </UserObject>
                <UserObject label="Digital&amp;nbsp;Capabilities" link="#digital-capabilities" id="3">
                    <mxCell style="rounded=1;whiteSpace=wrap;html=1;fontSize=24;fillColor=#f5f5f5;strokeColor=#666666;fontColor=#333333;" parent="1" vertex="1">
                        <mxGeometry x="110" y="230" width="470" height="60" as="geometry"/>
                    </mxCell>
                </UserObject>
                <UserObject label="Digital Channels" link="#digital-channels" id="4">
                    <mxCell style="rounded=1;whiteSpace=wrap;html=1;fontSize=24;fillColor=#f5f5f5;strokeColor=#666666;fontColor=#333333;" parent="1" vertex="1">
                        <mxGeometry x="110" y="90" width="470" height="60" as="geometry"/>
                    </mxCell>
                </UserObject>
                <UserObject label="Digital&amp;nbsp;Platforms" link="#digital-platforms" id="5">
                    <mxCell style="rounded=1;whiteSpace=wrap;html=1;fontSize=24;fillColor=#f5f5f5;strokeColor=#666666;fontColor=#333333;" parent="1" vertex="1">
                        <mxGeometry x="110" y="300" width="470" height="60" as="geometry"/>
                    </mxCell>
                </UserObject>
            </root>
        </mxGraphModel>
    </diagram>
</mxfile>
